# xmcd
# 
# Track frame offsets:
#     150
#     22797
#     45485
#     64410
# 
# Disc length: 1110
# 
# Revision: 0
# Processed by: cddbd v1.5.2PL0 Copyright (c) Steve Scherf et al.
# Submitted via: fre:ac v1.0.17
# 
DISCID=29045404
DTITLE=Die Form - The Hidden Cage - Spiral
DYEAR=1998
DGENRE=
TTITLE0=The Hidden Cage 2
TTITLE1=The Hidden Cage 1
TTITLE2=Spiral 2
TTITLE3=Spiral 1
EXTD=
EXTT0=
EXTT1=
EXTT2=
EXTT3=
PLAYORDER=
